<svg viewBox="0 0 1000 540" xmlns="http://www.w3.org/2000/svg" role="img" aria-label="about Ashton Vaughan">
  <defs>
    <linearGradient id="bg" x1="0" y1="0" x2="1" y2="1">
      <stop offset="0" stop-color="#0d1117"/>
      <stop offset="1" stop-color="#161b22"/>
    </linearGradient>
    <pattern id="grid" width="32" height="32" patternUnits="userSpaceOnUse">
      <path d="M 32 0 L 0 0 0 32" fill="none" stroke="#21262d" stroke-width="1"/>
    </pattern>
    <linearGradient id="accent" x1="0" y1="0" x2="1" y2="1">
      <stop offset="0" stop-color="#FF006E"/>
      <stop offset="0.5" stop-color="#9D4EDD"/>
      <stop offset="1" stop-color="#00D9FF"/>
    </linearGradient>
    <filter id="glow"><feGaussianBlur stdDeviation="3"/></filter>
  </defs>

  <rect width="1000" height="540" fill="url(#bg)" rx="10"/>
  <rect width="1000" height="540" fill="url(#grid)" rx="10"/>

  <rect x="0" y="0" width="1000" height="2" fill="url(#accent)"/>
  <rect x="0" y="538" width="1000" height="2" fill="url(#accent)"/>

  <g transform="translate(0, 0)">
    <rect x="0" y="0" width="1000" height="36" fill="#161b22"/>
    <circle cx="22" cy="18" r="5" fill="#ff5f56"/>
    <circle cx="40" cy="18" r="5" fill="#ffbd2e"/>
    <circle cx="58" cy="18" r="5" fill="#27c93f"/>
    <text x="500" y="22" text-anchor="middle" font-family="ui-monospace, 'JetBrains Mono', monospace" font-size="12" fill="#7d8590">ashton@brisbane:~ $ ./about --verbose</text>
    <line x1="0" y1="36" x2="1000" y2="36" stroke="#30363d" stroke-width="1"/>
  </g>

  <g transform="translate(60, 100)">
    <g stroke="#FF006E" stroke-width="1.5" fill="none" opacity="0.35">
      <polygon points="160,0 290,75 290,225 160,300 30,225 30,75"/>
      <polygon points="160,40 250,90 250,210 160,260 70,210 70,90"/>
    </g>
    <g stroke="#9D4EDD" stroke-width="1" opacity="0.4">
      <line x1="160" y1="0" x2="290" y2="225"/>
      <line x1="290" y1="75" x2="30" y2="225"/>
      <line x1="160" y1="300" x2="290" y2="75"/>
      <line x1="30" y1="75" x2="290" y2="225"/>
      <line x1="160" y1="0" x2="160" y2="300"/>
      <line x1="30" y1="150" x2="290" y2="150"/>
    </g>
    <g fill="#FF006E">
      <circle cx="160" cy="0" r="4"><animate attributeName="r" values="4;6;4" dur="3s" repeatCount="indefinite"/></circle>
      <circle cx="290" cy="75" r="4"><animate attributeName="r" values="4;6;4" dur="3s" begin="0.5s" repeatCount="indefinite"/></circle>
      <circle cx="290" cy="225" r="4"><animate attributeName="r" values="4;6;4" dur="3s" begin="1s" repeatCount="indefinite"/></circle>
      <circle cx="160" cy="300" r="4"><animate attributeName="r" values="4;6;4" dur="3s" begin="1.5s" repeatCount="indefinite"/></circle>
      <circle cx="30" cy="225" r="4"><animate attributeName="r" values="4;6;4" dur="3s" begin="2s" repeatCount="indefinite"/></circle>
      <circle cx="30" cy="75" r="4"><animate attributeName="r" values="4;6;4" dur="3s" begin="2.5s" repeatCount="indefinite"/></circle>
    </g>
    <text x="160" y="195" text-anchor="middle" font-family="ui-monospace, 'JetBrains Mono', monospace" font-size="120" font-weight="800" fill="url(#accent)" letter-spacing="-4">AV</text>
    <text x="160" y="340" text-anchor="middle" font-family="ui-monospace, 'JetBrains Mono', monospace" font-size="11" fill="#7d8590" letter-spacing="3">OPERATOR_CONSOLE.v1</text>
  </g>

  <g transform="translate(440, 80)" font-family="ui-monospace, 'JetBrains Mono', 'Fira Code', monospace" font-size="14">
    <text x="0" y="0">
      <tspan fill="#FF006E" font-weight="700">ashton</tspan><tspan fill="#7d8590">@</tspan><tspan fill="#00D9FF" font-weight="700">brisbane.au</tspan>
    </text>
    <text x="0" y="22" fill="#30363d" font-size="13">───────────────────────────────────────</text>

    <g fill="#e6edf3">
      <text x="0" y="60"><tspan fill="#FF006E" font-weight="600">OS</tspan>        QUT / BSc Computer Science</text>
      <text x="0" y="84"><tspan fill="#FF006E" font-weight="600">KERNEL</tspan>    18yo / he-him / AEST (UTC+10)</text>
      <text x="0" y="108"><tspan fill="#FF006E" font-weight="600">UPTIME</tspan>    a decade of side projects</text>
      <text x="0" y="132"><tspan fill="#FF006E" font-weight="600">SHELL</tspan>     bash · python · rust · typescript</text>

      <text x="0" y="174"><tspan fill="#9D4EDD" font-weight="600">DOMAIN</tspan>    offensive_security</text>
      <text x="0" y="198"><tspan fill="#9D4EDD" font-weight="600">DOMAIN</tspan>    applied_ml + agent_systems</text>
      <text x="0" y="222"><tspan fill="#9D4EDD" font-weight="600">DOMAIN</tspan>    systems_programming</text>

      <text x="0" y="264"><tspan fill="#00D9FF" font-weight="600">SHIPPING</tspan>  ProjectTriage  <tspan fill="#7d8590">(71K LOC python)</tspan></text>
      <text x="0" y="288"><tspan fill="#00D9FF" font-weight="600">SHIPPING</tspan>  PrismLLM       <tspan fill="#7d8590">(rust · on pypi)</tspan></text>
      <text x="0" y="312"><tspan fill="#00D9FF" font-weight="600">SHIPPING</tspan>  AgentBrowser   <tspan fill="#7d8590">(ts · mcp server)</tspan></text>

      <text x="0" y="354"><tspan fill="#06FFA5" font-weight="600">OPEN</tspan>      security research · bug bounty</text>
      <text x="0" y="378"><tspan fill="#06FFA5" font-weight="600">OPEN</tspan>      interesting systems problems</text>
    </g>

    <g transform="translate(0, 408)">
      <text x="0" y="14" fill="#FF006E" font-weight="600">STATUS</text>
      <rect x="92" y="0" width="240" height="16" fill="#0d1117" stroke="#30363d" stroke-width="1" rx="3"/>
      <rect x="92" y="0" width="0" height="16" fill="url(#accent)" rx="3">
        <animate attributeName="width" values="0;192" dur="2s" begin="0.2s" fill="freeze"/>
      </rect>
      <text x="345" y="13" fill="#06FFA5" font-weight="600">shipping</text>
      <circle cx="430" cy="8" r="5" fill="#06FFA5" filter="url(#glow)">
        <animate attributeName="opacity" values="1;0.25;1" dur="1.6s" repeatCount="indefinite"/>
      </circle>
      <circle cx="430" cy="8" r="5" fill="#06FFA5"/>
    </g>

    <g transform="translate(0, 448)">
      <g fill="#FF006E"><rect x="0" y="0" width="14" height="14"/></g>
      <g fill="#9D4EDD"><rect x="20" y="0" width="14" height="14"/></g>
      <g fill="#00D9FF"><rect x="40" y="0" width="14" height="14"/></g>
      <g fill="#06FFA5"><rect x="60" y="0" width="14" height="14"/></g>
      <g fill="#e6edf3"><rect x="80" y="0" width="14" height="14"/></g>
      <g fill="#7d8590"><rect x="100" y="0" width="14" height="14"/></g>
      <g fill="#30363d"><rect x="120" y="0" width="14" height="14"/></g>
      <g fill="#161b22" stroke="#30363d" stroke-width="1"><rect x="140" y="0" width="14" height="14"/></g>
    </g>

    <text x="0" y="490" font-family="ui-monospace, monospace" font-size="14" fill="#FF006E" font-weight="700">$</text>
    <rect x="14" y="478" width="10" height="14" fill="#FF006E">
      <animate attributeName="opacity" values="1;0;1" dur="1s" repeatCount="indefinite"/>
    </rect>
  </g>
</svg>
