<svg viewBox="0 0 1200 280" xmlns="http://www.w3.org/2000/svg" role="img" aria-label="Ashton Vaughan banner">
  <defs>
    <linearGradient id="bg" x1="0%" y1="0%" x2="100%" y2="100%">
      <stop offset="0%" stop-color="#0d1117"/>
      <stop offset="100%" stop-color="#161b22"/>
    </linearGradient>
    <pattern id="grid" width="32" height="32" patternUnits="userSpaceOnUse">
      <path d="M 32 0 L 0 0 0 32" fill="none" stroke="#21262d" stroke-width="1"/>
    </pattern>
    <linearGradient id="accent" x1="0%" y1="0%" x2="100%" y2="0%">
      <stop offset="0%" stop-color="#FF006E"/>
      <stop offset="50%" stop-color="#9D4EDD"/>
      <stop offset="100%" stop-color="#00D9FF"/>
    </linearGradient>
  </defs>

  <rect width="1200" height="280" fill="url(#bg)"/>
  <rect width="1200" height="280" fill="url(#grid)"/>

  <rect x="0" y="0" width="1200" height="2" fill="url(#accent)"/>
  <rect x="0" y="278" width="1200" height="2" fill="url(#accent)"/>

  <g stroke="#FF006E" stroke-width="2" fill="none">
    <path d="M 40 32 L 40 80 M 40 32 L 88 32"/>
    <path d="M 1160 32 L 1160 80 M 1160 32 L 1112 32"/>
    <path d="M 40 248 L 40 200 M 40 248 L 88 248"/>
    <path d="M 1160 248 L 1160 200 M 1160 248 L 1112 248"/>
  </g>

  <g transform="translate(80, 64)">
    <circle cx="6" cy="6" r="6" fill="#06FFA5">
      <animate attributeName="opacity" values="1;0.3;1" dur="2s" repeatCount="indefinite"/>
    </circle>
    <text x="22" y="11" font-family="ui-monospace, 'JetBrains Mono', 'Fira Code', monospace" font-size="13" fill="#7d8590" letter-spacing="2">SYSTEM ONLINE / SESSION ACTIVE</text>
  </g>

  <text x="80" y="160" font-family="ui-monospace, 'JetBrains Mono', 'Fira Code', monospace" font-size="56" font-weight="700" fill="#e6edf3" letter-spacing="-1">ASHTON VAUGHAN</text>

  <text x="80" y="200" font-family="ui-monospace, 'JetBrains Mono', 'Fira Code', monospace" font-size="18" fill="#FF006E">$ offensive_security + ai_ml_systems</text>

  <text x="80" y="226" font-family="ui-monospace, 'JetBrains Mono', 'Fira Code', monospace" font-size="13" fill="#7d8590">IT @ QUT / Brisbane / hacking since I was 9</text>

  <g transform="translate(820, 60)" font-family="ui-monospace, 'JetBrains Mono', 'Fira Code', monospace" font-size="13">
    <rect x="0" y="0" width="300" height="170" fill="#0d1117" stroke="#30363d" stroke-width="1" rx="6"/>
    <rect x="0" y="0" width="300" height="28" fill="#161b22" stroke="#30363d" stroke-width="1" rx="6"/>
    <rect x="0" y="22" width="300" height="6" fill="#161b22"/>
    <circle cx="14" cy="14" r="5" fill="#ff5f56"/>
    <circle cx="32" cy="14" r="5" fill="#ffbd2e"/>
    <circle cx="50" cy="14" r="5" fill="#27c93f"/>
    <text x="220" y="18" fill="#7d8590" font-size="11">~ / ashton</text>
    <text x="14" y="58" fill="#7d8590">PROJECTS:</text><text x="120" y="58" fill="#e6edf3">3 active</text>
    <text x="14" y="80" fill="#7d8590">LANGUAGES:</text><text x="120" y="80" fill="#e6edf3">py / rs / ts</text>
    <text x="14" y="102" fill="#7d8590">LATEST:</text><text x="120" y="102" fill="#e6edf3">ProjectTriage</text>
    <text x="14" y="124" fill="#7d8590">STATUS:</text><text x="120" y="124" fill="#06FFA5">deployed</text>
    <text x="14" y="156" fill="#FF006E">&gt;</text>
    <rect x="28" y="146" width="9" height="13" fill="#FF006E">
      <animate attributeName="opacity" values="1;0;1" dur="1s" repeatCount="indefinite"/>
    </rect>
  </g>
</svg>
